# xmcd CD database file
#
# Track frame offsets:
#	187
#	32135
#	48792
#	62437
#	82647
#	99610
#	135382
#	158547
#	194437
#	209122
#	223955
#
# Disc length: 3176 seconds
#
# Revision: 0
# Processed by: cddbd v1.5.2PL0 Copyright (c) Steve Scherf et al.
# Submitted via: CDex 1.70beta2
#
DISCID=920c660b
DTITLE=The Modern Jazz Quartet - DAYS OF JAZZ
DYEAR=1992
DGENRE=Jazz
TTITLE0=DJANGO
TTITLE1=AUTUMN IN NEW YORK
TTITLE2=ONE BASS HIT
TTITLE3=ALL OF YOU
TTITLE4=BUT NOT FOR ME
TTITLE5=SOFTLY, AS IN A MORNING SUNRISE
TTITLE6=I'LL REMEMBER APRIL
TTITLE7=GERSHWIN MEDLEY
TTITLE8=VENDOME
TTITLE9=ALL THE THINGS YOU ARE
TTITLE10=LA RONDE
EXTD=YEAR: 1992
EXTT0=
EXTT1=
EXTT2=
EXTT3=
EXTT4=
EXTT5=
EXTT6=
EXTT7=
EXTT8=
EXTT9=
EXTT10=
PLAYORDER=
